<?xml version="1.0" encoding="UTF-8" standalone="no"?>
<!-- Svg Vector Icons : http://www.onlinewebfonts.com/icon -->

<svg
   version="1.1"
   x="0px"
   y="0px"
   viewBox="0 0 322.19363 280.88616"
   enable-background="new 0 0 1000 1000"
   xml:space="preserve"
   id="svg12"
   sodipodi:docname="Bola-Baunilha.svg"
   width="322.19363"
   height="280.88617"
   inkscape:version="1.1.1 (3bf5ae0d25, 2021-09-20)"
   xmlns:inkscape="http://www.inkscape.org/namespaces/inkscape"
   xmlns:sodipodi="http://sodipodi.sourceforge.net/DTD/sodipodi-0.dtd"
   xmlns="http://www.w3.org/2000/svg"
   xmlns:svg="http://www.w3.org/2000/svg"><defs
   id="defs16" /><sodipodi:namedview
   id="namedview14"
   pagecolor="#ffffff"
   bordercolor="#666666"
   borderopacity="1.0"
   inkscape:pageshadow="2"
   inkscape:pageopacity="0.0"
   inkscape:pagecheckerboard="0"
   showgrid="false"
   fit-margin-top="0"
   fit-margin-left="0"
   fit-margin-right="0"
   fit-margin-bottom="0"
   inkscape:zoom="0.716"
   inkscape:cx="-60.75419"
   inkscape:cy="282.12291"
   inkscape:window-width="1680"
   inkscape:window-height="1014"
   inkscape:window-x="1280"
   inkscape:window-y="0"
   inkscape:window-maximized="1"
   inkscape:current-layer="g10" />
<metadata
   id="metadata2"> Svg Vector Icons : http://www.onlinewebfonts.com/icon </metadata>
<g
   id="g10"
   transform="translate(-281.00248,5.1859866)"><path
     d="m 365.94,386.1 c -6.9,4.6 -13.61,8.43 -15.14,8.63 -1.72,0 -2.11,1.53 -1.15,5.17 0.77,3.07 31.81,133.39 69.19,289.78 45.23,189.35 69.38,287.1 72.25,292.27 5.94,10.73 12.07,10.73 18.02,0 2.88,-4.98 18.59,-67.46 44.65,-177.28 22.42,-93.14 52.9,-221.55 68.23,-285.18 15.14,-63.82 27.21,-116.14 26.83,-116.53 -0.38,-0.38 -6.9,-4.6 -14.57,-9.01 l -13.99,-8.43 -15.53,15.91 c -13.61,13.99 -16.86,16.29 -26.83,19.17 -22.04,6.52 -40.06,0.57 -59.99,-19.55 -6.52,-6.71 -12.65,-12.07 -13.8,-12.07 -1.15,0 -6.9,3.45 -13.03,7.67 -23,16.29 -52.13,19.55 -74.36,8.63 -5.94,-2.88 -16.29,-10.35 -23,-16.48 -6.52,-6.32 -12.65,-11.31 -13.61,-11.12 -0.94,-0.01 -7.27,3.82 -14.17,8.42 z"
     id="path6"
     style="fill:#ffe552;fill-opacity:1;stroke-width:0.1" /><path
     d="m -176.59114,432.38784 c -71.68,13.42 -128.98,61.9 -151.79,128.41 -7.67,22.23 -10.16,45.23 -8.82,80.11 0.57,18.78 0.19,32.96 -0.96,35.84 -0.96,2.68 -7.09,11.69 -13.42,20.12 -18.59,24.72 -24.72,52.13 -15.72,69.95 6.71,13.22 24.92,22.81 43.51,23 14.56,0 18.78,-1.53 36.41,-13.61 26.26,-17.82 31.05,-17.63 53.28,4.02 8.43,8.43 18.59,16.48 22.42,18.21 14.37,5.94 27.79,3.07 46.57,-9.77 27.41,-18.78 31.43,-18.4 55.58,4.98 9.579996,9.2 19.360001,17.25 21.660001,18.21 9.01,2.68 17.83,-0.77 27.02,-10.92 24.34,-26.64 21.46,-24.53 34.31,-24.53 10.16,0 13.8,1.15 32.0099996,10.54 22.8100004,11.69 29.9000004,12.84 45.4200004,7.09 28.17,-10.16 40.25,-32.58 31.24,-58.07 -1.73,-4.41 -8.24,-15.33 -14.56,-24.15 -17.63,-24.34 -17.25,-23 -15.91,-69.19 0.96,-27.41 0.58,-43.89 -0.96,-53.09 -12.65,-74.55 -68.42,-134.16 -143.55,-153.71 -23.750001,-6.12 -60.930001,-7.66 -83.740001,-3.44 z"
     id="path1163"
     style="fill:#7f73ff;fill-opacity:1;stroke-width:0.1" /><g
     id="g3828"><path
       d="m 431.96422,28.747942 c -46.54099,8.713451 -83.74523,40.190953 -98.5555,83.375138 -4.98004,14.43368 -6.59677,29.36731 -5.72673,52.01449 0.37011,12.19364 0.12338,21.40055 -0.62331,23.27049 -0.62331,1.74011 -4.60344,7.59019 -8.71345,13.06369 -12.07027,16.05041 -16.0504,33.84741 -10.2068,45.41773 4.35672,8.58359 16.18026,14.81027 28.25052,14.93363 9.45365,0 12.19365,-0.99341 23.64061,-8.8368 17.05031,-11.57034 20.16041,-11.44696 34.59409,2.61013 5.47348,5.4735 12.07027,10.70027 14.55704,11.82355 9.33027,3.85676 18.04373,1.9933 30.23737,-6.34356 17.79699,-12.19364 20.40713,-11.94691 36.08744,3.23346 6.22018,5.97345 12.57023,11.20023 14.0636,11.82354 5.85009,1.74009 11.57681,-0.49996 17.54377,-7.09024 15.80368,-17.29704 13.93373,-15.92704 22.27709,-15.92704 6.59676,0 8.96018,0.74668 20.78372,6.84351 14.81026,7.59018 19.41372,8.33686 29.49068,4.60344 18.29046,-6.59677 26.13385,-21.15381 20.28376,-37.70417 -1.12326,-2.86336 -5.35013,-9.95359 -9.45362,-15.68032 -11.44696,-15.80368 -11.20023,-14.93363 -10.33019,-44.92426 0.62332,-17.79701 0.37659,-28.49727 -0.62332,-34.47072 C 571.3275,82.379173 535.11668,43.675081 486.33564,30.981495 470.91503,27.007846 446.7745,26.007942 431.96422,28.747942 Z"
       id="path4"
       style="fill:#00004a;fill-opacity:0.342075;stroke-width:0.0649289" /><path
       d="m 418.50269,-3.5057994 c -50.59598,9.472629 -91.04171,43.6926814 -107.14236,90.6393804 -5.41394,15.691249 -7.17153,31.926009 -6.22568,56.546379 0.40235,13.25604 0.13412,23.26511 -0.67762,25.29799 -0.67762,1.89171 -5.00454,8.2515 -9.47263,14.20189 -13.12192,17.44884 -17.44884,36.79644 -11.0961,49.37485 4.73631,9.33146 17.59001,16.10064 30.71192,16.23476 10.27731,0 13.25604,-1.07997 25.70034,-9.60674 18.53586,-12.57842 21.91693,-12.4443 37.60818,2.83755 5.95038,5.95039 13.12192,11.63256 15.82536,12.8537 10.14319,4.19279 19.61583,2.16698 32.87186,-6.89625 19.3476,-13.25604 22.18515,-12.98781 39.23165,3.51518 6.76213,6.4939 13.66544,12.17607 15.28892,12.85369 6.35979,1.8917 12.58546,-0.54351 19.07231,-7.70798 17.18062,-18.80409 15.14774,-17.31472 24.21803,-17.31472 7.17152,0 9.74086,0.81173 22.59455,7.43976 16.10065,8.25149 21.10519,9.06322 32.06013,5.00453 19.88405,-7.17153 28.41082,-22.99689 22.05103,-40.98924 -1.22113,-3.11283 -5.81628,-10.82082 -10.2773,-17.0465 -12.4443,-17.18061 -12.17607,-16.23476 -11.23022,-48.83839 0.67762,-19.34761 0.4094,-30.98016 -0.67763,-37.47407 -8.92911,-52.621795 -48.29488,-94.698069 -101.32608,-108.4976134 -16.76416,-4.319862 -43.008,-5.406885 -59.10866,-2.428156 z"
       id="path825"
       style="fill:#f3e5ab;fill-opacity:1;stroke-width:0.070586" /></g></g>
</svg>
