<?xml version="1.0" encoding="UTF-8" standalone="no"?>
<!-- Svg Vector Icons : http://www.onlinewebfonts.com/icon -->

<svg
   version="1.1"
   x="0px"
   y="0px"
   viewBox="0 0 322.19363 270.1487"
   enable-background="new 0 0 1000 1000"
   xml:space="preserve"
   id="svg12"
   sodipodi:docname="0a5d8a24097d1656cf87315434d0e3bd.svg"
   width="322.19363"
   height="270.14871"
   inkscape:version="1.1.1 (3bf5ae0d25, 2021-09-20)"
   xmlns:inkscape="http://www.inkscape.org/namespaces/inkscape"
   xmlns:sodipodi="http://sodipodi.sourceforge.net/DTD/sodipodi-0.dtd"
   xmlns="http://www.w3.org/2000/svg"
   xmlns:svg="http://www.w3.org/2000/svg"><defs
   id="defs16" /><sodipodi:namedview
   id="namedview14"
   pagecolor="#ffffff"
   bordercolor="#666666"
   borderopacity="1.0"
   inkscape:pageshadow="2"
   inkscape:pageopacity="0.0"
   inkscape:pagecheckerboard="0"
   showgrid="false"
   fit-margin-top="0"
   fit-margin-left="0"
   fit-margin-right="0"
   fit-margin-bottom="0"
   inkscape:zoom="0.716"
   inkscape:cx="-280.02793"
   inkscape:cy="473.46369"
   inkscape:window-width="1680"
   inkscape:window-height="1014"
   inkscape:window-x="1280"
   inkscape:window-y="0"
   inkscape:window-maximized="1"
   inkscape:current-layer="g10" />
<metadata
   id="metadata2"> Svg Vector Icons : http://www.onlinewebfonts.com/icon </metadata>
<g
   id="g10"
   transform="translate(-305.48389,-27.202413)"><path
     d="m 442.9841,28.8826 c -50.59598,9.472629 -91.04171,43.692681 -107.14236,90.63938 -5.41394,15.69125 -7.17153,31.92601 -6.22568,56.54638 0.40235,13.25604 0.13412,23.26511 -0.67762,25.29799 -0.67762,1.89171 -5.00454,8.2515 -9.47263,14.20189 -13.12192,17.44884 -17.44884,36.79644 -11.0961,49.37485 4.73631,9.33146 17.59001,16.10064 30.71192,16.23476 10.27731,0 13.25604,-1.07997 25.70034,-9.60674 18.53586,-12.57842 21.91693,-12.4443 37.60818,2.83755 5.95038,5.95039 13.12192,11.63256 15.82536,12.8537 10.14319,4.19279 19.61583,2.16698 32.87186,-6.89625 19.3476,-13.25604 22.18515,-12.98781 39.23165,3.51518 6.76213,6.4939 13.66544,12.17607 15.28892,12.85369 6.35979,1.8917 12.58546,-0.54351 19.07231,-7.70798 17.18062,-18.80409 15.14774,-17.31472 24.21803,-17.31472 7.17152,0 9.74086,0.81173 22.59455,7.43976 16.10065,8.25149 21.10519,9.06322 32.06013,5.00453 19.88405,-7.17153 28.41082,-22.99689 22.05103,-40.98924 -1.22113,-3.11283 -5.81628,-10.82082 -10.2773,-17.0465 -12.4443,-17.18061 -12.17607,-16.23476 -11.23022,-48.83839 0.67762,-19.34761 0.4094,-30.98016 -0.67763,-37.47407 C 594.48973,87.186574 555.12396,45.1103 502.09276,31.310756 485.3286,26.990894 459.08476,25.903871 442.9841,28.8826 Z"
     id="path4"
     style="fill:#f3e5ab;fill-opacity:1;stroke-width:0.070586" /><path
     d="m 365.94,386.1 c -6.9,4.6 -13.61,8.43 -15.14,8.63 -1.72,0 -2.11,1.53 -1.15,5.17 0.77,3.07 31.81,133.39 69.19,289.78 45.23,189.35 69.38,287.1 72.25,292.27 5.94,10.73 12.07,10.73 18.02,0 2.88,-4.98 18.59,-67.46 44.65,-177.28 22.42,-93.14 52.9,-221.55 68.23,-285.18 15.14,-63.82 27.21,-116.14 26.83,-116.53 -0.38,-0.38 -6.9,-4.6 -14.57,-9.01 l -13.99,-8.43 -15.53,15.91 c -13.61,13.99 -16.86,16.29 -26.83,19.17 -22.04,6.52 -40.06,0.57 -59.99,-19.55 -6.52,-6.71 -12.65,-12.07 -13.8,-12.07 -1.15,0 -6.9,3.45 -13.03,7.67 -23,16.29 -52.13,19.55 -74.36,8.63 -5.94,-2.88 -16.29,-10.35 -23,-16.48 -6.52,-6.32 -12.65,-11.31 -13.61,-11.12 -0.94,-0.01 -7.27,3.82 -14.17,8.42 z"
     id="path6"
     style="fill:#ffe552;fill-opacity:1;stroke-width:0.1" /><path
     d="m -176.59114,432.38784 c -71.68,13.42 -128.98,61.9 -151.79,128.41 -7.67,22.23 -10.16,45.23 -8.82,80.11 0.57,18.78 0.19,32.96 -0.96,35.84 -0.96,2.68 -7.09,11.69 -13.42,20.12 -18.59,24.72 -24.72,52.13 -15.72,69.95 6.71,13.22 24.92,22.81 43.51,23 14.56,0 18.78,-1.53 36.41,-13.61 26.26,-17.82 31.05,-17.63 53.28,4.02 8.43,8.43 18.59,16.48 22.42,18.21 14.37,5.94 27.79,3.07 46.57,-9.77 27.41,-18.78 31.43,-18.4 55.58,4.98 9.579996,9.2 19.360001,17.25 21.660001,18.21 9.01,2.68 17.83,-0.77 27.02,-10.92 24.34,-26.64 21.46,-24.53 34.31,-24.53 10.16,0 13.8,1.15 32.0099996,10.54 22.8100004,11.69 29.9000004,12.84 45.4200004,7.09 28.17,-10.16 40.25,-32.58 31.24,-58.07 -1.73,-4.41 -8.24,-15.33 -14.56,-24.15 -17.63,-24.34 -17.25,-23 -15.91,-69.19 0.96,-27.41 0.58,-43.89 -0.96,-53.09 -12.65,-74.55 -68.42,-134.16 -143.55,-153.71 -23.750001,-6.12 -60.930001,-7.66 -83.740001,-3.44 z"
     id="path1163"
     style="fill:#7f73ff;fill-opacity:1;stroke-width:0.1" /></g>
</svg>
