<?xml version="1.0" encoding="UTF-8" standalone="no"?>
<!-- Svg Vector Icons : http://www.onlinewebfonts.com/icon -->

<svg
   version="1.1"
   x="0px"
   y="0px"
   viewBox="0 0 456.45596 382.72323"
   enable-background="new 0 0 1000 1000"
   xml:space="preserve"
   id="svg12"
   sodipodi:docname="Bola-Rosa.svg"
   width="456.45596"
   height="382.72324"
   inkscape:version="1.1.1 (3bf5ae0d25, 2021-09-20)"
   xmlns:inkscape="http://www.inkscape.org/namespaces/inkscape"
   xmlns:sodipodi="http://sodipodi.sourceforge.net/DTD/sodipodi-0.dtd"
   xmlns="http://www.w3.org/2000/svg"
   xmlns:svg="http://www.w3.org/2000/svg"><defs
   id="defs16" /><sodipodi:namedview
   id="namedview14"
   pagecolor="#ffffff"
   bordercolor="#666666"
   borderopacity="1.0"
   inkscape:pageshadow="2"
   inkscape:pageopacity="0.0"
   inkscape:pagecheckerboard="0"
   showgrid="false"
   fit-margin-top="0"
   fit-margin-left="0"
   fit-margin-right="0"
   fit-margin-bottom="0"
   inkscape:zoom="0.716"
   inkscape:cx="78.910615"
   inkscape:cy="490.22346"
   inkscape:window-width="1680"
   inkscape:window-height="1014"
   inkscape:window-x="1280"
   inkscape:window-y="0"
   inkscape:window-maximized="1"
   inkscape:current-layer="svg12" />
<metadata
   id="metadata2"> Svg Vector Icons : http://www.onlinewebfonts.com/icon </metadata>
<path
   d="m 194.79837,2.38034 c -71.68,13.42 -128.98,61.9 -151.79,128.41 -7.67,22.23 -10.16,45.23 -8.82,80.11 0.57,18.78 0.19,32.96 -0.96,35.84 -0.96,2.68 -7.09,11.69 -13.42,20.12 -18.59,24.72 -24.72,52.13 -15.72,69.95 6.71,13.22 24.92,22.81 43.51,23 14.56,0 18.78,-1.53 36.41,-13.61 26.26,-17.82 31.05,-17.63 53.28,4.02 8.43,8.43 18.59,16.48 22.42,18.21 14.37,5.94 27.79,3.07 46.57,-9.77 27.41,-18.78 31.43,-18.4 55.58,4.98 9.58,9.2 19.36,17.25 21.66,18.21 9.01,2.68 17.83,-0.77 27.02,-10.92 24.34,-26.64 21.46,-24.53 34.31,-24.53 10.16,0 13.8,1.15 32.01,10.54 22.81,11.69 29.9,12.84 45.42,7.09 28.17,-10.16 40.25,-32.58 31.24,-58.07 -1.73,-4.41 -8.24,-15.33 -14.56,-24.15 -17.63,-24.34 -17.25,-23 -15.91,-69.19 0.96,-27.41 0.58,-43.89 -0.96,-53.09 -12.65,-74.55 -68.42,-134.16 -143.55,-153.71 -23.75,-6.12 -60.93,-7.66 -83.74,-3.44 z"
   id="path4"
   style="fill:#ff83c3;fill-opacity:1;stroke-width:0.1" /><path
   d="m -400.56749,215.42265 c -6.9,4.6 -13.61,8.43 -15.14,8.63 -1.72,0 -2.11,1.53 -1.15,5.17 0.77,3.07 31.81,133.39 69.19,289.78 45.23,189.35 69.38,287.1 72.25,292.27 5.94,10.73 12.07,10.73 18.02,0 2.88,-4.98 18.59,-67.46 44.65,-177.28 22.42,-93.14 52.9,-221.55 68.23,-285.18 15.14,-63.82 27.21,-116.14 26.83,-116.53 -0.38,-0.38 -6.9,-4.6 -14.57,-9.01 l -13.99,-8.43 -15.53,15.91 c -13.61,13.99 -16.86,16.29 -26.83,19.17 -22.04,6.52 -40.06,0.57 -59.99,-19.55 -6.52,-6.71 -12.65,-12.07 -13.8,-12.07 -1.15,0 -6.9,3.45 -13.03,7.67 -23,16.29 -52.13,19.55 -74.36,8.63 -5.94,-2.88 -16.29,-10.35 -23,-16.48 -6.52,-6.32 -12.65,-11.31 -13.61,-11.12 -0.94,-0.01 -7.27,3.82 -14.17,8.42 z"
   id="path6"
   style="fill:#ffe552;fill-opacity:1;stroke-width:0.1" />
</svg>
