<?xml version="1.0" encoding="UTF-8" standalone="no"?>
<!-- Svg Vector Icons : http://www.onlinewebfonts.com/icon -->

<svg
   version="1.1"
   x="0px"
   y="0px"
   viewBox="0 0 392.85455 350.42229"
   enable-background="new 0 0 1000 1000"
   xml:space="preserve"
   id="svg12"
   sodipodi:docname="Bola-Roxa.svg"
   width="392.85455"
   height="350.4223"
   inkscape:version="1.1.1 (3bf5ae0d25, 2021-09-20)"
   xmlns:inkscape="http://www.inkscape.org/namespaces/inkscape"
   xmlns:sodipodi="http://sodipodi.sourceforge.net/DTD/sodipodi-0.dtd"
   xmlns="http://www.w3.org/2000/svg"
   xmlns:svg="http://www.w3.org/2000/svg"><defs
   id="defs16" /><sodipodi:namedview
   id="namedview14"
   pagecolor="#ffffff"
   bordercolor="#666666"
   borderopacity="1.0"
   inkscape:pageshadow="2"
   inkscape:pageopacity="0.0"
   inkscape:pagecheckerboard="0"
   showgrid="false"
   fit-margin-top="0"
   fit-margin-left="0"
   fit-margin-right="0"
   fit-margin-bottom="0"
   inkscape:zoom="0.716"
   inkscape:cx="148.74302"
   inkscape:cy="515.36313"
   inkscape:window-width="1680"
   inkscape:window-height="1014"
   inkscape:window-x="1280"
   inkscape:window-y="0"
   inkscape:window-maximized="1"
   inkscape:current-layer="g10" />
<metadata
   id="metadata2"> Svg Vector Icons : http://www.onlinewebfonts.com/icon </metadata>
<g
   id="g10"
   transform="translate(-285.31355,14.56601)"><path
     d="m 462.58246,29.122082 c -57.8076,10.822794 -104.01819,49.920341 -122.41372,103.558508 -6.1856,17.92777 -8.19371,36.47653 -7.11304,64.60612 0.45969,15.14546 0.15323,26.58116 -0.77421,28.90379 -0.7742,2.16134 -5.71785,9.42761 -10.82279,16.22613 -14.99223,19.93588 -19.93588,42.04115 -12.67767,56.41241 5.41139,10.6615 20.09717,18.39552 35.0894,18.54875 11.74217,0 15.14546,-1.2339 29.36349,-10.97602 21.17784,-14.37126 25.04081,-14.21803 42.96859,3.24199 6.79852,6.79853 14.99223,13.29059 18.081,14.68578 11.58894,4.79041 22.41174,2.47585 37.5572,-7.87919 22.10527,-15.14546 25.34727,-14.839 44.82346,4.01621 7.72596,7.4195 15.61321,13.91156 17.4681,14.68578 7.26627,2.16132 14.37931,-0.62098 21.79075,-8.80664 19.62942,-21.48429 17.30679,-19.78264 27.6699,-19.78264 8.19371,0 11.12926,0.92743 25.81503,8.50017 18.39552,9.4276 24.11338,10.35504 36.62976,5.71785 22.71819,-8.19371 32.46031,-26.27471 25.19404,-46.83157 -1.39519,-3.55652 -6.6453,-12.36315 -11.74216,-19.47619 -14.21803,-19.62942 -13.91157,-18.54875 -12.8309,-55.79949 0.7742,-22.10528 0.46775,-35.39586 -0.77421,-42.81537 C 635.68266,95.736311 590.70597,47.66277 530.11606,31.896332 c -19.15361,-4.935587 -49.13807,-6.177547 -67.5336,-2.77425 z"
     id="path4"
     style="fill:#000071;fill-opacity:0.359175;stroke-width:0.0806468" /><path
     d="m 365.94,386.1 c -6.9,4.6 -13.61,8.43 -15.14,8.63 -1.72,0 -2.11,1.53 -1.15,5.17 0.77,3.07 31.81,133.39 69.19,289.78 45.23,189.35 69.38,287.1 72.25,292.27 5.94,10.73 12.07,10.73 18.02,0 2.88,-4.98 18.59,-67.46 44.65,-177.28 22.42,-93.14 52.9,-221.55 68.23,-285.18 15.14,-63.82 27.21,-116.14 26.83,-116.53 -0.38,-0.38 -6.9,-4.6 -14.57,-9.01 l -13.99,-8.43 -15.53,15.91 c -13.61,13.99 -16.86,16.29 -26.83,19.17 -22.04,6.52 -40.06,0.57 -59.99,-19.55 -6.52,-6.71 -12.65,-12.07 -13.8,-12.07 -1.15,0 -6.9,3.45 -13.03,7.67 -23,16.29 -52.13,19.55 -74.36,8.63 -5.94,-2.88 -16.29,-10.35 -23,-16.48 -6.52,-6.32 -12.65,-11.31 -13.61,-11.12 -0.94,-0.01 -7.27,3.82 -14.17,8.42 z"
     id="path6"
     style="fill:#ffe552;fill-opacity:1;stroke-width:0.1" /><path
     d="m -176.59114,432.38784 c -71.68,13.42 -128.98,61.9 -151.79,128.41 -7.67,22.23 -10.16,45.23 -8.82,80.11 0.57,18.78 0.19,32.96 -0.96,35.84 -0.96,2.68 -7.09,11.69 -13.42,20.12 -18.59,24.72 -24.72,52.13 -15.72,69.95 6.71,13.22 24.92,22.81 43.51,23 14.56,0 18.78,-1.53 36.41,-13.61 26.26,-17.82 31.05,-17.63 53.28,4.02 8.43,8.43 18.59,16.48 22.42,18.21 14.37,5.94 27.79,3.07 46.57,-9.77 27.41,-18.78 31.43,-18.4 55.58,4.98 9.579996,9.2 19.360001,17.25 21.660001,18.21 9.01,2.68 17.83,-0.77 27.02,-10.92 24.34,-26.64 21.46,-24.53 34.31,-24.53 10.16,0 13.8,1.15 32.0099996,10.54 22.8100004,11.69 29.9000004,12.84 45.4200004,7.09 28.17,-10.16 40.25,-32.58 31.24,-58.07 -1.73,-4.41 -8.24,-15.33 -14.56,-24.15 -17.63,-24.34 -17.25,-23 -15.91,-69.19 0.96,-27.41 0.58,-43.89 -0.96,-53.09 -12.65,-74.55 -68.42,-134.16 -143.55,-153.71 -23.750001,-6.12 -60.930001,-7.66 -83.740001,-3.44 z"
     id="path1163"
     style="fill:#7f73ff;fill-opacity:1;stroke-width:0.1" /><path
     d="m 452.96921,-12.517338 c -61.69229,11.55009008 -111.00825,53.27501 -130.63997,110.517685 -6.60128,19.132533 -8.74433,38.927773 -7.59104,68.947683 0.49058,16.16324 0.16353,28.36743 -0.82624,30.84614 -0.82623,2.30658 -6.10209,10.06115 -11.55009,17.31653 -15.99971,21.27558 -21.27558,44.86634 -13.52961,60.20335 5.77504,11.37796 21.44771,19.63171 37.44742,19.79524 12.53125,0 16.16325,-1.31682 31.33673,-11.71362 22.601,-15.33701 26.72357,-15.17348 45.8561,3.45986 7.25538,7.25539 15.99972,14.18372 19.29605,15.67267 12.36772,5.11233 23.91782,2.64223 40.08106,-8.40868 23.59076,-16.16324 27.05062,-15.83619 47.83562,4.2861 8.24515,7.9181 16.66243,14.84643 18.64196,15.67267 7.75457,2.30657 15.34561,-0.66271 23.2551,-9.39844 20.94853,-22.92805 18.46982,-21.11205 29.52933,-21.11205 8.74433,0 11.87715,0.98976 27.54981,9.07139 19.63171,10.06114 25.73381,11.0509 39.0913,6.10209 24.24486,-8.74433 34.64166,-28.04038 26.88709,-49.97867 -1.48894,-3.79552 -7.09186,-13.19396 -12.53124,-20.785 -15.17348,-20.94853 -14.84643,-19.79524 -13.69314,-59.54924 0.82623,-23.59077 0.49918,-37.77448 -0.82624,-45.69258 C 637.70183,58.573397 589.70268,7.2692922 525.0411,-9.556658 c -20.44074,-5.26726 -52.44017,-6.59268 -72.07189,-2.96068 z"
     id="path825"
     style="fill:#7f73ff;fill-opacity:1;stroke-width:0.0860663" /></g>
</svg>
