<?xml version="1.0" encoding="UTF-8" standalone="no"?>
<!-- Svg Vector Icons : http://www.onlinewebfonts.com/icon -->

<svg
   version="1.1"
   x="0px"
   y="0px"
   viewBox="0 0 300.64332 612.32275"
   enable-background="new 0 0 1000 1000"
   xml:space="preserve"
   id="svg12"
   sodipodi:docname="Cone-Amarelo.svg"
   width="300.64331"
   height="612.32275"
   inkscape:version="1.1.1 (3bf5ae0d25, 2021-09-20)"
   xmlns:inkscape="http://www.inkscape.org/namespaces/inkscape"
   xmlns:sodipodi="http://sodipodi.sourceforge.net/DTD/sodipodi-0.dtd"
   xmlns="http://www.w3.org/2000/svg"
   xmlns:svg="http://www.w3.org/2000/svg"><defs
   id="defs16" /><sodipodi:namedview
   id="namedview14"
   pagecolor="#ffffff"
   bordercolor="#666666"
   borderopacity="1.0"
   inkscape:pageshadow="2"
   inkscape:pageopacity="0.0"
   inkscape:pagecheckerboard="0"
   showgrid="false"
   fit-margin-top="0"
   fit-margin-left="0"
   fit-margin-right="0"
   fit-margin-bottom="0"
   inkscape:zoom="0.716"
   inkscape:cx="-125"
   inkscape:cy="157.82123"
   inkscape:window-width="1680"
   inkscape:window-height="1014"
   inkscape:window-x="1280"
   inkscape:window-y="0"
   inkscape:window-maximized="1"
   inkscape:current-layer="g10" />
<metadata
   id="metadata2"> Svg Vector Icons : http://www.onlinewebfonts.com/icon </metadata>
<g
   id="g10"
   transform="translate(-323.21574,-342.96638)"><path
     d="m -10.160885,78.767326 c -71.68,13.42 -128.979995,61.900004 -151.789995,128.410004 -7.67,22.23 -10.16,45.23 -8.82,80.11 0.57,18.78 0.19,32.96 -0.96,35.84 -0.96,2.68 -7.09,11.69 -13.42,20.12 -18.59,24.72 -24.72,52.13 -15.72,69.95 6.71,13.22 24.92,22.81 43.51,23 14.56,0 18.78,-1.53 36.41,-13.61 26.259995,-17.82 31.049995,-17.63 53.279995,4.02 8.43,8.43 18.59,16.48 22.42,18.21 14.37,5.94 27.79,3.07 46.5700005,-9.77 27.4099995,-18.78 31.4299995,-18.4 55.5799995,4.98 9.58,9.2 19.36,17.25 21.66,18.21 9.01,2.68 17.83,-0.77 27.020005,-10.92 24.34,-26.64 21.46,-24.53 34.31,-24.53 10.16,0 13.8,1.15 32.01,10.54 22.81,11.69 29.9,12.84 45.42,7.09 28.17,-10.16 40.25,-32.58 31.24,-58.07 -1.73,-4.41 -8.24,-15.33 -14.56,-24.15 -17.63,-24.34 -17.25,-23 -15.91,-69.19 0.96,-27.41 0.58,-43.89 -0.96,-53.09 -12.65,-74.55 -68.42,-134.16 -143.550005,-153.710004 -23.75,-6.12 -60.93,-7.66 -83.74,-3.44 z"
     id="path4"
     style="fill:#000000;fill-opacity:1;stroke-width:0.1" /><path
     d="m 356.20848,377.86469 c -6.52832,4.3604 -12.87688,7.99091 -14.32446,8.18048 -1.62734,0 -1.99633,1.45031 -1.08806,4.90072 0.72853,2.9101 30.09652,126.44215 65.46301,274.6863 42.79362,179.48738 65.64274,272.1459 68.35814,277.04661 5.62004,10.17111 11.41984,10.17111 17.04934,0 2.72487,-4.72061 17.58862,-63.94623 42.24486,-168.04606 21.21232,-88.28864 50.05048,-210.01018 64.5547,-270.32591 14.32447,-60.49583 25.74431,-110.09063 25.38477,-110.46032 -0.35953,-0.36022 -6.52833,-4.36042 -13.78517,-8.5407 l -13.2364,-7.99091 -14.69346,15.0813 c -12.87688,13.2613 -15.95182,15.4415 -25.38477,18.1715 -20.85278,6.18039 -37.90211,0.5403 -56.75856,-18.53171 -6.16879,-6.3605 -11.96859,-11.44131 -13.05665,-11.44131 -1.08804,0 -6.52831,3.2703 -12.32811,7.27049 -21.76108,15.44151 -49.32196,18.5317 -70.35451,8.18049 -5.62003,-2.72999 -15.41252,-9.8109 -21.76107,-15.62161 -6.16879,-5.99081 -11.96859,-10.72089 -12.87688,-10.54079 -0.88936,-0.01 -6.87839,3.62102 -13.40672,7.98143 z"
     id="path6"
     style="fill:#00004b;fill-opacity:0.339373;stroke-width:0.0947023" /><path
     d="m 340.01864,351.39163 c -6.9,4.6 -13.61,8.43 -15.14,8.63 -1.72,0 -2.11,1.53 -1.15,5.17 0.77,3.07 31.81,133.39 69.19,289.78 45.23,189.35 69.38,287.1 72.25,292.27 5.94,10.73 12.07,10.73 18.02,0 2.88,-4.98 18.59,-67.46 44.65,-177.28 22.42,-93.14 52.9,-221.55 68.23,-285.18 15.14,-63.82 27.21,-116.14 26.83,-116.53 -0.38,-0.38 -6.9,-4.6 -14.57,-9.01 l -13.99,-8.43 -15.53,15.91 c -13.61,13.99 -16.86,16.29 -26.83,19.17 -22.04,6.52 -40.06,0.57 -59.99,-19.55 -6.52,-6.71 -12.65,-12.07 -13.8,-12.07 -1.15,0 -6.9,3.45 -13.03,7.67 -23,16.29 -52.13,19.55 -74.36,8.63 -5.94,-2.88 -16.29,-10.35 -23,-16.48 -6.52,-6.32 -12.65,-11.31 -13.61,-11.12 -0.94,-0.01 -7.27,3.82 -14.17,8.42 z"
     id="path824"
     style="fill:#ffe552;fill-opacity:1;stroke-width:0.1" /></g>
</svg>
