<?xml version="1.0" encoding="UTF-8" standalone="no"?>
<!-- Svg Vector Icons : http://www.onlinewebfonts.com/icon -->

<svg
   version="1.1"
   x="0px"
   y="0px"
   viewBox="0 0 305.97247 614.32086"
   enable-background="new 0 0 1000 1000"
   xml:space="preserve"
   id="svg12"
   sodipodi:docname="Cone-Azul.svg"
   width="305.97247"
   height="614.32086"
   inkscape:version="1.1.1 (3bf5ae0d25, 2021-09-20)"
   xmlns:inkscape="http://www.inkscape.org/namespaces/inkscape"
   xmlns:sodipodi="http://sodipodi.sourceforge.net/DTD/sodipodi-0.dtd"
   xmlns="http://www.w3.org/2000/svg"
   xmlns:svg="http://www.w3.org/2000/svg"><defs
   id="defs16" /><sodipodi:namedview
   id="namedview14"
   pagecolor="#ffffff"
   bordercolor="#666666"
   borderopacity="1.0"
   inkscape:pageshadow="2"
   inkscape:pageopacity="0.0"
   inkscape:pagecheckerboard="0"
   showgrid="false"
   fit-margin-top="0"
   fit-margin-left="0"
   fit-margin-right="0"
   fit-margin-bottom="0"
   inkscape:zoom="0.716"
   inkscape:cx="31.424581"
   inkscape:cy="131.28492"
   inkscape:window-width="1680"
   inkscape:window-height="1014"
   inkscape:window-x="1280"
   inkscape:window-y="0"
   inkscape:window-maximized="1"
   inkscape:current-layer="svg12" />
<metadata
   id="metadata2"> Svg Vector Icons : http://www.onlinewebfonts.com/icon </metadata>
<path
   d="m -355.87434,-186.09765 c -71.68,13.42 -128.98,61.9 -151.79,128.409999 -7.67,22.23 -10.16,45.23 -8.82,80.11 0.57,18.78 0.19,32.96 -0.96,35.84 -0.96,2.68 -7.09,11.69 -13.42,20.12 -18.59,24.720001 -24.72,52.130001 -15.72,69.950001 6.71,13.22 24.92,22.81 43.51,23 14.56,0 18.78,-1.53 36.41,-13.61 26.26,-17.82 31.05,-17.63 53.28,4.02 8.43,8.43 18.59,16.48 22.42,18.21 14.37,5.94 27.79,3.07 46.57,-9.77 27.41,-18.78 31.43,-18.4 55.58,4.98 9.58,9.2 19.36,17.25 21.66,18.21 9.01,2.68 17.83,-0.77 27.02,-10.92 24.34,-26.64 21.46,-24.53 34.31,-24.53 10.16,0 13.8,1.15 32.01,10.54 22.81,11.69 29.9,12.84 45.42,7.09 28.17,-10.16 40.250002,-32.58 31.240002,-58.07 -1.73,-4.41 -8.240002,-15.33 -14.560002,-24.150001 -17.63,-24.34 -17.25,-23 -15.91,-69.19 0.96,-27.4100001 0.58,-43.89 -0.96,-53.09 -12.65,-74.549999 -68.42,-134.159999 -143.55,-153.709999 -23.75,-6.12 -60.93,-7.66 -83.74,-3.44 z"
   id="path4"
   style="fill:#000000;fill-opacity:1;stroke-width:0.1" /><path
   d="m 25.84819,16.324798 c -6.832572,4.555048 -13.477,8.34762 -14.992049,8.545666 -1.7031915,0 -2.0893803,1.515048 -1.1387617,5.119477 C 10.479855,33.02994 41.216524,162.07642 78.231237,316.93813 123.01924,504.43776 146.93324,601.23252 149.77519,606.352 c 5.88195,10.62514 11.95205,10.62514 17.8439,0 2.85186,-4.93134 18.40834,-66.80077 44.21367,-175.54758 22.20091,-92.22981 52.38305,-219.38495 67.56324,-282.39315 14.99205,-63.196328 26.9441,-115.005043 26.56781,-115.391232 -0.37629,-0.376287 -6.83257,-4.555048 -14.42762,-8.921952 l -13.85328,-8.34762 -15.37824,15.754524 c -13.477,13.853286 -16.69524,16.130809 -26.56781,18.982665 -21.82462,6.456285 -39.66852,0.56443 -59.40376,-19.358952 -6.45629,-6.644428 -12.52638,-11.952049 -13.66515,-11.952049 -1.13876,0 -6.83257,3.416286 -12.90266,7.595047 C 126.99005,42.902511 98.144717,46.130653 76.131954,35.317366 70.250002,32.46551 60.001144,25.068509 53.356716,18.998413 46.900431,12.740174 40.830335,7.7989373 39.879717,7.9870806 38.948903,7.9771783 32.680761,11.769751 25.84819,16.324798 Z"
   id="path6"
   style="fill:#000075;fill-opacity:0.349547;stroke-width:0.0990228" />
<path
   d="M 16.802903,8.4252508 C 9.9029025,13.025251 3.1929026,16.855251 1.6629026,17.055251 c -1.72000004,0 -2.11000004,1.53 -1.15000004,5.17 0.77000004,3.07 31.81000044,133.389999 69.19000044,289.779999 45.229997,189.35 69.379997,287.1 72.249997,292.27 5.94,10.73 12.07,10.73 18.02,0 2.88,-4.98 18.59,-67.46 44.65,-177.28 22.42,-93.14 52.9,-221.55 68.23,-285.18 15.14,-63.819999 27.21,-116.139999 26.83,-116.529999 -0.38,-0.38 -6.9,-4.6 -14.57,-9.01 l -13.99,-8.4300002 -15.53,15.9100002 c -13.61,13.99 -16.86,16.29 -26.83,19.17 -22.04,6.52 -40.06,0.57 -59.99,-19.55 -6.52,-6.71 -12.65,-12.07 -13.8,-12.07 -1.15,0 -6.9,3.45 -13.03,7.67 -23,16.29 -52.129997,19.55 -74.359997,8.63 -5.94,-2.88 -16.29,-10.35 -23,-16.48 -6.52,-6.3200002 -12.65,-11.31000017 -13.61,-11.12000017 -0.94,-0.01 -7.27,3.81999997 -14.17,8.41999997 z"
   id="path823"
   style="fill:#14d0f0;fill-opacity:1;stroke-width:0.1" /></svg>
