<?xml version="1.0" encoding="UTF-8" standalone="no"?>
<!-- Svg Vector Icons : http://www.onlinewebfonts.com/icon -->

<svg
   version="1.1"
   x="0px"
   y="0px"
   viewBox="0 0 303.66226 614.21093"
   enable-background="new 0 0 1000 1000"
   xml:space="preserve"
   id="svg12"
   sodipodi:docname="Cone-Rosa.svg"
   width="303.66226"
   height="614.21094"
   inkscape:version="1.1.1 (3bf5ae0d25, 2021-09-20)"
   xmlns:inkscape="http://www.inkscape.org/namespaces/inkscape"
   xmlns:sodipodi="http://sodipodi.sourceforge.net/DTD/sodipodi-0.dtd"
   xmlns="http://www.w3.org/2000/svg"
   xmlns:svg="http://www.w3.org/2000/svg"><defs
   id="defs16" /><sodipodi:namedview
   id="namedview14"
   pagecolor="#ffffff"
   bordercolor="#666666"
   borderopacity="1.0"
   inkscape:pageshadow="2"
   inkscape:pageopacity="0.0"
   inkscape:pagecheckerboard="0"
   showgrid="false"
   fit-margin-top="0"
   fit-margin-left="0"
   fit-margin-right="0"
   fit-margin-bottom="0"
   inkscape:zoom="0.716"
   inkscape:cx="510.47486"
   inkscape:cy="340.78212"
   inkscape:window-width="1680"
   inkscape:window-height="1014"
   inkscape:window-x="1280"
   inkscape:window-y="0"
   inkscape:window-maximized="1"
   inkscape:current-layer="svg12" />
<metadata
   id="metadata2"> Svg Vector Icons : http://www.onlinewebfonts.com/icon </metadata>
<path
   d="m -359.85787,-184.62221 c -71.68,13.42 -128.98,61.9 -151.79,128.410005 -7.67,22.23 -10.16,45.23 -8.82,80.11 0.57,18.78 0.19,32.96 -0.96,35.84 -0.96,2.68 -7.09,11.69 -13.42,20.12 -18.59,24.719995 -24.72,52.129995 -15.72,69.949995 6.71,13.22 24.92,22.81 43.51,23 14.56,0 18.78,-1.53 36.41,-13.61 26.26,-17.82 31.05,-17.63 53.28,4.02 8.43,8.43 18.59,16.48 22.42,18.21 14.37,5.94 27.79,3.07 46.57,-9.77 27.41,-18.78 31.43,-18.4 55.58,4.98 9.58,9.2 19.36,17.25 21.66,18.21 9.01,2.68 17.83,-0.77 27.02,-10.92 24.34,-26.64 21.46,-24.53 34.31,-24.53 10.16,0 13.8,1.15 32.01,10.54 22.81,11.69 29.9,12.84 45.42,7.09 28.17,-10.16 40.250003,-32.58 31.24,-58.07 -1.73,-4.41 -8.24,-15.33 -14.56,-24.149995 -17.63,-24.34 -17.25,-23 -15.91,-69.19 0.96,-27.4100001 0.58,-43.89 -0.96,-53.09 -12.65,-74.550005 -68.42,-134.160005 -143.55,-153.710005 -23.75,-6.12 -60.93,-7.66 -83.74,-3.44 z"
   id="path4"
   style="fill:#000000;fill-opacity:1;stroke-width:0.1" /><path
   d="m 27.466528,24.601322 c -6.73675,4.491166 -13.287995,8.23055 -14.781796,8.425819 -1.679305,0 -2.060078,1.493801 -1.122791,5.04768 0.751782,2.997365 31.057392,130.234059 67.553,282.923959 44.159879,184.87007 67.738499,280.30736 70.540599,285.35504 5.79946,10.47613 11.78443,10.47613 17.59365,0 2.81186,-4.86218 18.15017,-65.86393 43.59361,-173.08565 21.88955,-90.93635 51.64841,-216.30824 66.61571,-278.43279 14.7818,-62.310048 26.56623,-113.392184 26.19522,-113.772957 -0.37101,-0.371009 -6.73675,-4.491166 -14.22528,-8.796828 l -13.65901,-8.23055 -15.16257,15.533577 c -13.28799,13.659004 -16.4611,15.904587 -26.19521,18.716448 -21.51855,6.36574 -39.1122,0.556514 -58.57067,-19.087457 -6.36574,-6.551245 -12.35071,-11.78443 -13.4735,-11.78443 -1.12279,0 -6.73675,3.368374 -12.72172,7.488531 C 127.18994,50.806301 98.749149,53.989171 77.045099,43.327533 71.245637,40.515672 61.140512,33.222409 54.589268,27.237441 48.223527,21.06697 42.23856,16.19503 41.301273,16.380535 c -0.91776,-0.0098 -7.097995,3.729621 -13.834745,8.220787 z"
   id="path6"
   style="fill:#000065;fill-opacity:0.338025;stroke-width:0.0976341" />
<path
   d="m 16.802903,8.4252509 c -6.9,4.6000001 -13.6100004,8.4300001 -15.1400004,8.6300001 -1.72000004,0 -2.11000004,1.53 -1.15000004,5.17 0.77000004,3.07 31.81000044,133.389999 69.19000044,289.779999 45.229997,189.35 69.379997,287.1 72.249997,292.27 5.94,10.73 12.07,10.73 18.02,0 2.88,-4.98 18.59,-67.46 44.65,-177.28 22.42,-93.14 52.9,-221.55 68.23,-285.18 15.14,-63.819999 27.21,-116.139999 26.83,-116.529999 -0.38,-0.38 -6.9,-4.6 -14.57,-9.01 l -13.99,-8.4300002 -15.53,15.9100002 c -13.61,13.99 -16.86,16.29 -26.83,19.17 -22.04,6.52 -40.06,0.57 -59.99,-19.55 -6.52,-6.71 -12.65,-12.07 -13.8,-12.07 -1.15,0 -6.9,3.45 -13.03,7.67 -23,16.29 -52.129997,19.55 -74.359997,8.63 -5.94,-2.88 -16.29,-10.35 -23,-16.48 -6.52,-6.3200002 -12.65,-11.31000017 -13.61,-11.12000017 -0.94,-0.01 -7.27,3.81999997 -14.17,8.42000007 z"
   id="path823"
   style="fill:#ff83c3;fill-opacity:1;stroke-width:0.1" /></svg>
